HIERARCHY
ROOT Hips
{
	OFFSET 4.076200 -17.275196 43.303001
	CHANNELS 6 Xposition Yposition Zposition Zrotation Xrotation Yrotation
	JOINT Chest
	{
		OFFSET -0.689800 0.941999 5.341000
		CHANNELS 6 Xposition Yposition Zposition Zrotation Xrotation Yrotation
		JOINT Chest2
		{
			OFFSET 0.000000 0.000000 4.278900
			CHANNELS 6 Xposition Yposition Zposition Zrotation Xrotation Yrotation
			JOINT Neck
			{
				OFFSET 0.000000 0.000000 9.970299
				CHANNELS 6 Xposition Yposition Zposition Zrotation Xrotation Yrotation
				JOINT Head
				{
					OFFSET 0.000000 0.000002 2.173901
					CHANNELS 6 Xposition Yposition Zposition Zrotation Xrotation Yrotation
					End Site
					{
						OFFSET 0.000000 0.000000 6.488197
					}
				}
			}
			JOINT LeftCollar
			{
				OFFSET 2.472300 -0.285801 5.433899
				CHANNELS 6 Xposition Yposition Zposition Zrotation Xrotation Yrotation
				JOINT LeftShoulder
				{
					OFFSET 5.327700 0.000000 0.000000
					CHANNELS 6 Xposition Yposition Zposition Zrotation Xrotation Yrotation
					JOINT LeftElbow
					{
						OFFSET 0.000000 0.000000 -10.713001
						CHANNELS 6 Xposition Yposition Zposition Zrotation Xrotation Yrotation
						JOINT LeftWrist
						{
							OFFSET 0.000000 -0.000002 -13.396900
							CHANNELS 6 Xposition Yposition Zposition Zrotation Xrotation Yrotation
							End Site
							{
								OFFSET 0.000000 0.000000 -2.173901
							}
						}
					}
				}
			}
			JOINT RightCollar
			{
				OFFSET -2.589400 -1.358400 6.105000
				CHANNELS 6 Xposition Yposition Zposition Zrotation Xrotation Yrotation
				JOINT RightShoulder
				{
					OFFSET -4.580200 0.000000 0.000000
					CHANNELS 6 Xposition Yposition Zposition Zrotation Xrotation Yrotation
					JOINT RightElbow
					{
						OFFSET 0.000000 0.000000 -10.761101
						CHANNELS 6 Xposition Yposition Zposition Zrotation Xrotation Yrotation
						JOINT RightWrist
						{
							OFFSET 0.000000 -0.000002 -13.028500
							CHANNELS 6 Xposition Yposition Zposition Zrotation Xrotation Yrotation
							End Site
							{
								OFFSET 0.000000 0.000000 -2.173901
							}
						}
					}
				}
			}
		}
	}
	JOINT LeftHip
	{
		OFFSET 2.532500 0.486900 -2.489700
		CHANNELS 6 Xposition Yposition Zposition Zrotation Xrotation Yrotation
		JOINT LeftKnee
		{
			OFFSET 0.000000 -0.000002 -18.199398
			CHANNELS 6 Xposition Yposition Zposition Zrotation Xrotation Yrotation
			JOINT LeftAnkle
			{
				OFFSET 0.000000 -0.000002 -16.083900
				CHANNELS 6 Xposition Yposition Zposition Zrotation Xrotation Yrotation
				End Site
				{
					OFFSET 0.000000 -8.641399 0.000000
				}
			}
		}
	}
	JOINT RightHip
	{
		OFFSET -2.112700 -0.049900 -2.711102
		CHANNELS 6 Xposition Yposition Zposition Zrotation Xrotation Yrotation
		JOINT RightKnee
		{
			OFFSET 0.000000 -0.000002 -19.127298
			CHANNELS 6 Xposition Yposition Zposition Zrotation Xrotation Yrotation
			JOINT RightAnkle
			{
				OFFSET 0.000000 -0.000002 -14.874901
				CHANNELS 6 Xposition Yposition Zposition Zrotation Xrotation Yrotation
				End Site
				{
					OFFSET 0.000000 -8.198299 0.000000
				}
			}
		}
	}
}
MOTION
Frames: 4
Frame Time: 0.041667
38.301300 -12.299594 40.359398 1744.794336 8.952712 2.885936 -0.689798 0.942002 5.340993 -6.407932 -8.331959 18.048973 0.000002 -0.000002 4.278906 1.723288 -3.453982 -0.461580 -0.000004 -0.000001 9.970304 28.398134 1.942461 -0.660237 0.000005 0.000002 2.173901 0.337519 -1.091854 0.899282 2.472298 -0.285803 5.433897 -15.427954 6.214369 3.027625 5.327696 -0.000006 -0.000001 -6.199961 -75.246159 -29.963900 0.000001 0.000000 -10.713002 245.896864 -171.248142 203.836313 0.000004 -0.000002 -13.396896 2.662033 -3.850305 -47.968924 -2.589401 -1.358399 6.105001 25.139256 16.103745 3.572903 -4.580206 -0.000001 -0.000009 54.288092 -24.065989 88.087679 -0.000001 -0.000001 -10.761105 -54.954954 -62.934845 -76.994018 0.000003 -0.000004 -13.028494 75.122129 544.760534 1195.956725 2.532501 0.486892 -2.489698 127.220046 -51.376761 115.333809 0.000001 -0.000001 -18.199398 -99.482149 58.743390 72.148668 -0.000003 -0.000006 -16.083900 31.271376 15.449297 5.256416 -2.112697 -0.049904 -2.711101 -24.498656 -32.221701 -24.002907 -0.000000 0.000007 -19.127300 534.070632 114.071973 -529.051755 -0.000002 -0.000002 -14.874899 349.000209 16.818677 22.928470
38.314404 -12.300893 40.341698 1744.761551 8.959251 2.840554 -0.689799 0.941998 5.341000 -6.469326 -8.354187 17.978414 0.000004 0.000004 4.278898 1.749961 -3.438405 -0.460464 -0.000001 -0.000003 9.970305 28.355996 1.891884 -0.623086 0.000000 0.000001 2.173889 0.242740 -1.117418 0.777593 2.472297 -0.285803 5.433905 -15.269400 6.001087 2.834446 5.327698 -0.000002 -0.000001 -5.511977 -75.223592 -29.125095 -0.000005 0.000002 -10.713000 245.963991 -171.221026 204.127908 0.000004 -0.000009 -13.396903 2.568007 -3.787709 -48.121913 -2.589402 -1.358401 6.105007 24.932491 15.851749 3.755310 -4.580198 0.000003 -0.000005 54.246035 -24.327496 87.900232 -0.000000 0.000003 -10.761106 -55.894464 -62.654760 -77.879702 0.000001 -0.000007 -13.028498 75.353891 544.609122 1196.303043 2.532499 0.486893 -2.489702 127.301639 -51.335056 115.566596 0.000003 0.000001 -18.199400 -99.896523 58.634264 72.618571 -0.000004 -0.000007 -16.083899 31.328787 15.258661 6.150948 -2.112698 -0.049901 -2.711102 -24.531120 -32.369861 -23.829324 0.000003 0.000005 -19.127296 533.467936 113.868085 -528.686148 0.000001 -0.000007 -14.874897 349.300000 16.785718 22.702861
38.323605 -12.299094 40.321102 1744.672376 8.961558 2.796954 -0.689800 0.942001 5.341001 -6.491886 -8.369429 17.923637 -0.000001 0.000001 4.278900 1.758089 -3.394302 -0.455362 0.000001 -0.000001 9.970302 28.334039 1.799762 -0.618552 -0.000004 -0.000000 2.173892 0.168388 -1.190314 0.746341 2.472302 -0.285802 5.433906 -15.100090 5.785972 2.717792 5.327700 -0.000004 -0.000002 -5.379254 -75.145912 -28.886800 0.000004 0.000003 -10.712992 246.125020 -171.191534 204.484389 0.000005 0.000001 -13.396903 2.596921 -3.867882 -48.042089 -2.589395 -1.358400 6.105001 24.826810 15.631528 3.770479 -4.580196 0.000002 -0.000004 54.176941 -24.182013 87.838234 -0.000004 -0.000001 -10.761104 -56.708086 -62.832843 -78.474468 -0.000000 0.000001 -13.028503 75.177345 544.501369 1196.473853 2.532503 0.486899 -2.489694 127.450879 -51.169195 115.750465 0.000002 0.000002 -18.199396 -100.536170 58.505051 73.266060 -0.000001 -0.000003 -16.083895 31.515705 15.249306 6.329028 -2.112701 -0.049901 -2.711099 -24.540950 -32.474223 -23.623550 0.000003 0.000004 -19.127298 533.172544 113.659593 -528.547905 0.000000 -0.000002 -14.874897 349.596703 16.721299 22.355824
38.331696 -12.295197 40.301605 1744.519380 8.966013 2.802981 -0.689801 0.941994 5.340998 -6.397339 -8.354359 17.755340 -0.000001 0.000002 4.278900 1.703833 -3.370203 -0.453401 -0.000003 -0.000006 9.970302 28.366054 1.752794 -0.554979 -0.000003 -0.000000 2.173891 0.081330 -1.294297 0.705756 2.472298 -0.285806 5.433901 -14.895773 5.540229 2.633842 5.327704 -0.000010 0.000001 -4.924132 -75.134096 -28.223110 0.000006 0.000007 -10.712998 246.350662 -171.196670 204.721082 -0.000001 0.000004 -13.396905 2.487867 -3.809330 -48.070328 -2.589400 -1.358402 6.104998 24.749332 15.475580 4.153459 -4.580199 -0.000000 0.000005 54.037895 -24.667312 87.524530 -0.000003 -0.000002 -10.761101 -57.156963 -62.588363 -79.062356 -0.000005 -0.000006 -13.028496 75.428019 544.295207 1196.783124 2.532499 0.486889 -2.489697 127.694621 -51.148275 115.931956 0.000005 -0.000003 -18.199402 -100.978254 58.244151 73.784560 0.000002 -0.000002 -16.083895 31.838524 15.237705 6.397112 -2.112701 -0.049902 -2.711098 -24.601783 -32.544858 -23.508975 0.000000 0.000006 -19.127295 533.200685 113.395122 -528.686804 0.000001 -0.000010 -14.874896 349.778113 16.608267 22.062433
